<svg viewBox="0 0 25 27" fill="none" xmlns="http://www.w3.org/2000/svg">
<path d="M15.6532 1.0511H12.4999V3.02189H14.6677V6.73355C14.6677 9.99359 12.0153 12.646 8.75529 12.646C5.49525 12.646 2.84292 9.99364 2.84292 6.7336V3.02189H4.94512V1.0511H1.85753C1.31325 1.0511 0.872131 1.49222 0.872131 2.0365V6.7336C0.872131 11.0805 4.40839 14.6168 8.75534 14.6168C13.1023 14.6168 16.6385 11.0805 16.6385 6.7336V2.0365C16.6385 1.49222 16.1974 1.0511 15.6532 1.0511Z" fill="#35A0EE"/>
<path d="M19.4962 15.4379V20.1022C19.4962 22.819 17.286 25.0292 14.5692 25.0292C11.8524 25.0292 9.64218 22.819 9.64218 20.1022V13.6642H7.67139V20.1022C7.67139 23.9055 10.7655 27 14.5692 27C18.3725 27 21.467 23.9055 21.467 20.1022V15.4379H19.4962Z" fill="#35A0EE"/>
<path d="M20.4819 9.06567C18.471 9.06567 16.8356 10.7011 16.8356 12.7117C16.8356 14.7219 18.471 16.3577 20.4816 16.3577C22.4921 16.3577 24.1276 14.7219 24.1279 12.7117C24.1278 10.7011 22.4921 9.06567 20.4819 9.06567ZM20.4816 14.3869C19.5576 14.3869 18.806 13.6354 18.806 12.7117C18.806 11.7881 19.5576 11.0366 20.4816 11.0366C21.4052 11.0366 22.1567 11.7881 22.1567 12.7117C22.1567 13.6354 21.4052 14.3869 20.4816 14.3869Z" fill="#35A0EE"/>
<path d="M4.91227 0C4.368 0 3.92688 0.441123 3.92688 0.985395V3.0876C3.92688 3.63187 4.368 4.07299 4.91227 4.07299C5.45654 4.07299 5.89766 3.63187 5.89766 3.0876V0.985395C5.89766 0.441123 5.45654 0 4.91227 0Z" fill="#35A0EE"/>
<path d="M12.5328 0C11.9885 0 11.5474 0.441123 11.5474 0.985395V3.0876C11.5474 3.63187 11.9885 4.07299 12.5328 4.07299C13.077 4.07299 13.5181 3.63187 13.5181 3.0876V0.985395C13.5181 0.441123 13.077 0 12.5328 0Z" fill="#35A0EE"/>
</svg>
