<svg viewBox="0 0 22 28" fill="none" xmlns="http://www.w3.org/2000/svg">
<path d="M9.99999 7.6H12V6.4H13.2V4.4H12V3.2H9.99999V4.4H8.79999V6.4H9.99999V7.6Z" fill="#35A0EE"/>
<path d="M16.1 18C16.9087 17.2852 17.558 16.4083 18.0059 15.4264C18.4538 14.4444 18.6903 13.3793 18.7 12.3V9.8L19.3 4.2C19.3563 3.66842 19.2998 3.13095 19.1342 2.6227C18.9686 2.11445 18.6976 1.64686 18.339 1.25047C17.9803 0.854081 17.5421 0.537819 17.0529 0.322343C16.5637 0.106868 16.0345 -0.00297296 15.5 -2.35075e-06H6.5C5.96546 -0.00297296 5.43631 0.106868 4.94711 0.322343C4.45791 0.537819 4.01968 0.854081 3.66105 1.25047C3.30241 1.64686 3.03144 2.11445 2.86584 2.6227C2.70023 3.13095 2.64372 3.66842 2.7 4.2L3.3 9.8V12.3C3.29707 13.3718 3.51791 14.4323 3.9484 15.4139C4.37889 16.3954 5.00954 17.2762 5.8 18C4.24308 18.1005 2.78128 18.7843 1.70623 19.9149C0.631183 21.0456 0.0219235 22.54 0 24.1L0 26.8C0 27.0652 0.105357 27.3196 0.292893 27.5071C0.48043 27.6946 0.734784 27.8 1 27.8H21C21.2652 27.8 21.5196 27.6946 21.7071 27.5071C21.8946 27.3196 22 27.0652 22 26.8V24C21.9764 22.4237 21.3532 20.9155 20.2572 19.7824C19.1612 18.6492 17.6747 17.9761 16.1 17.9V18ZM5.1 2.6C5.26412 2.41637 5.46417 2.26838 5.68778 2.16518C5.91138 2.06198 6.15379 2.00576 6.4 2H15.5C15.7542 1.99842 16.0058 2.05071 16.2384 2.1534C16.4709 2.2561 16.679 2.40688 16.8491 2.59583C17.0191 2.78477 17.1472 3.00759 17.225 3.24961C17.3027 3.49163 17.3282 3.74738 17.3 4L16.8 8.8H5.2L4.7 4C4.65157 3.75853 4.65321 3.50969 4.70481 3.26889C4.75641 3.02808 4.85688 2.80042 5 2.6H5.1ZM5.3 12.3V10.8H16.7V12.3C16.7 13.8117 16.0995 15.2615 15.0305 16.3305C13.9616 17.3995 12.5117 18 11 18C9.48827 18 8.03845 17.3995 6.96949 16.3305C5.90053 15.2615 5.3 13.8117 5.3 12.3ZM11 20C11.9964 19.9895 12.9813 19.7858 13.9 19.4L11 22L8.1 19.4C9.01874 19.7858 10.0036 19.9895 11 20ZM20 25.8H2V24.1C2.01988 23.0694 2.41809 22.082 3.11881 21.326C3.81954 20.5699 4.77383 20.098 5.8 20L10.3 24.1C10.4869 24.2832 10.7382 24.3859 11 24.3859C11.2618 24.3859 11.5131 24.2832 11.7 24.1L16.2 20C17.2262 20.098 18.1805 20.5699 18.8812 21.326C19.5819 22.082 19.9801 23.0694 20 24.1V25.8Z" fill="#35A0EE"/>
</svg>
