<svg viewBox="0 0 27 26" fill="none" xmlns="http://www.w3.org/2000/svg">
<path d="M3.84094 13.125H16.8747C17.496 13.125 17.9997 12.6213 17.9997 12C17.9997 11.3787 17.496 10.875 16.8747 10.875H3.84094L5.29548 9.42047C5.73483 8.98112 5.73483 8.26885 5.29548 7.8295C4.85621 7.39015 4.14386 7.39015 3.70452 7.8295L0.329684 11.2044C0.303359 11.2307 0.278459 11.2583 0.25491 11.2871C0.244635 11.2997 0.23571 11.3129 0.226035 11.3258C0.21366 11.3423 0.20091 11.3584 0.189435 11.3756C0.178935 11.3912 0.16986 11.4075 0.16026 11.4236C0.151035 11.439 0.14136 11.4541 0.132885 11.47C0.124035 11.4865 0.11661 11.5034 0.10866 11.5202C0.10086 11.5367 0.0926855 11.5529 0.0857105 11.5697C0.0789606 11.5861 0.0734106 11.6028 0.0674857 11.6195C0.0609607 11.6375 0.0540607 11.6552 0.0485108 11.6736C0.0434858 11.6903 0.0398108 11.7071 0.0356108 11.724C0.0308859 11.7427 0.0256359 11.7613 0.0218859 11.7803C0.0180609 11.7998 0.0157359 11.8194 0.012961 11.839C0.010561 11.8557 0.00733599 11.8722 0.005686 11.8891C0.00208602 11.9254 0.000211034 11.962 0.000136035 11.9984C0.000136035 11.9989 6.10352e-05 11.9995 6.10352e-05 12.0001C6.10352e-05 12.0006 0.000136035 12.0012 0.000136035 12.0017C0.000211034 12.0382 0.00208602 12.0747 0.005686 12.1111C0.00733599 12.1278 0.010486 12.1441 0.012811 12.1606C0.0156609 12.1804 0.0179859 12.2002 0.0218859 12.2199C0.0256359 12.2388 0.0308109 12.2571 0.0355358 12.2756C0.0398108 12.2926 0.0435608 12.3098 0.0486608 12.3267C0.0541357 12.3448 0.0609607 12.3622 0.0672607 12.3799C0.0733356 12.3969 0.0788856 12.4139 0.0857856 12.4306C0.0926105 12.4471 0.100635 12.4629 0.108285 12.479C0.116385 12.4962 0.124035 12.5135 0.133035 12.5304C0.141285 12.5458 0.15066 12.5604 0.159585 12.5753C0.16941 12.5919 0.178785 12.6086 0.189585 12.6247C0.200535 12.6412 0.21276 12.6565 0.224535 12.6724C0.234735 12.6859 0.244185 12.7 0.25506 12.7132C0.277484 12.7405 0.301259 12.7666 0.326084 12.7918C0.327284 12.793 0.328259 12.7943 0.329459 12.7955L3.70444 16.1706C3.92419 16.3902 4.21204 16.5001 4.49996 16.5001C4.78781 16.5 5.07581 16.3902 5.29541 16.1706C5.73475 15.7313 5.73475 15.019 5.29548 14.5797L3.84094 13.125Z" fill="#35A0EE"/>
<path d="M22.875 1.87499H8.62511C8.00382 1.87499 7.50012 2.37869 7.50012 2.99998V7.49995C7.50012 8.12125 8.00382 8.62495 8.62511 8.62495C9.24641 8.62495 9.75011 8.12125 9.75011 7.49995V4.12497H21.75V19.875H9.75011V16.4999C9.75011 15.8786 9.24641 15.3749 8.62511 15.3749C8.00382 15.3749 7.50012 15.8786 7.50012 16.4999V20.9999C7.50012 21.6212 8.00382 22.1249 8.62511 22.1249H22.875C23.4963 22.1249 24 21.6212 24 20.9999V2.99998C24 2.37869 23.4963 1.87499 22.875 1.87499Z" fill="#35A0EE"/>
</svg>
