
<svg viewBox="0 0 124 130" fill="none" xmlns="http://www.w3.org/2000/svg">
<path d="M62 117.213H0.242188C0.242188 117.213 1.8818 130 9.67297 130C17.4641 130 62 130 62 130C62 130 106.536 130 114.327 130C122.118 130 123.758 117.213 123.758 117.213H62Z" fill="#B3B3B3"/>
<path d="M113.666 9.40503H10.3341C4.62578 9.40503 0 13.8961 0 19.4329V39.5755V115.058C0 120.595 4.62578 125.086 10.3341 125.086H113.668C119.374 125.086 124.002 120.597 124.002 115.058V39.5755V37.6766V19.4329C124 13.8961 119.374 9.40503 113.666 9.40503Z" fill="#E6E6E6"/>
<path d="M113.666 9.40503H10.3341C4.62578 9.40503 0 13.8961 0 19.4329V39.5755H124V19.4329C124 13.8961 119.374 9.40503 113.666 9.40503Z" fill="#35A0EE"/>
<path d="M36.5196 24.4902C36.5196 28.7603 32.9473 32.222 28.5468 32.222C24.1462 32.222 20.574 28.7603 20.574 24.4902C20.574 20.2153 24.1462 16.7537 28.5468 16.7537C32.9473 16.7537 36.5196 20.2153 36.5196 24.4902Z" fill="#080300"/>
<path d="M103.424 24.4902C103.424 28.7603 99.8565 32.222 95.4511 32.222C91.0506 32.222 87.4832 28.7603 87.4832 24.4902C87.4832 20.2153 91.0506 16.7537 95.4511 16.7537C99.8565 16.756 103.424 20.2153 103.424 24.4902Z" fill="#080300"/>
<path d="M28.687 0C25.7154 0 23.3032 2.34069 23.3032 5.22425V22.0674C23.3032 24.9556 25.7154 27.2916 28.687 27.2916C31.6587 27.2916 34.0709 24.9556 34.0709 22.0674V5.22425C34.0709 2.34069 31.6611 0 28.687 0Z" fill="#415A6B"/>
<path d="M100.978 5.22425C100.978 2.34069 98.5703 0 95.5938 0C92.6221 0 90.21 2.34069 90.21 5.22425V22.0674C90.21 24.9556 92.6221 27.2916 95.5938 27.2916C98.5703 27.2916 100.978 24.9556 100.978 22.0674V5.22425Z" fill="#415A6B"/>
<path d="M124 37.1174H0V39.5756H124V37.1174Z" fill="#288FCE"/>
<path d="M71.7699 52.5928H52.2302V104.194H71.7699V52.5928Z" fill="#35A0EE"/>
<path d="M35.4116 68.3088L35.4116 87.2693L88.5887 87.2693L88.5887 68.3088L35.4116 68.3088Z" fill="#35A0EE"/>

</svg>
